<svg width="18" height="15" viewBox="0 0 18 15" fill="none" xmlns="http://www.w3.org/2000/svg">
<path d="M17.7806 8.03068L11.0306 14.7807C10.8899 14.9214 10.699 15.0005 10.5 15.0005C10.301 15.0005 10.1101 14.9214 9.96937 14.7807C9.82864 14.6399 9.74958 14.4491 9.74958 14.2501C9.74958 14.051 9.82864 13.8602 9.96937 13.7194L15.4397 8.25005H0.75C0.551088 8.25005 0.360322 8.17103 0.21967 8.03038C0.0790178 7.88973 0 7.69896 0 7.50005C0 7.30114 0.0790178 7.11037 0.21967 6.96972C0.360322 6.82907 0.551088 6.75005 0.75 6.75005H15.4397L9.96937 1.28068C9.82864 1.13995 9.74958 0.949074 9.74958 0.750051C9.74958 0.551028 9.82864 0.360156 9.96937 0.219426C10.1101 0.0786953 10.301 -0.000366211 10.5 -0.000366211C10.699 -0.000366211 10.8899 0.0786953 11.0306 0.219426L17.7806 6.96943C17.8504 7.03908 17.9057 7.1218 17.9434 7.21285C17.9812 7.30389 18.0006 7.40149 18.0006 7.50005C18.0006 7.59861 17.9812 7.69621 17.9434 7.78726C17.9057 7.8783 17.8504 7.96102 17.7806 8.03068Z" fill="#191919"/>
</svg>
