<svg width="10" height="18" viewBox="0 0 10 18" fill="none" xmlns="http://www.w3.org/2000/svg">
<path d="M1.53061 0.969322L9.03061 8.46932C9.10035 8.53898 9.15567 8.6217 9.19341 8.71274C9.23115 8.80379 9.25058 8.90139 9.25058 8.99995C9.25058 9.09851 9.23115 9.19611 9.19341 9.28715C9.15567 9.3782 9.10035 9.46092 9.03061 9.53057L1.53061 17.0306C1.38988 17.1713 1.19901 17.2504 0.99999 17.2504C0.800967 17.2504 0.610095 17.1713 0.469364 17.0306C0.328634 16.8898 0.249573 16.699 0.249573 16.4999C0.249573 16.3009 0.328634 16.1101 0.469364 15.9693L7.43968 8.99995L0.469364 2.03057C0.399681 1.96089 0.344406 1.87817 0.306694 1.78712C0.268982 1.69608 0.249572 1.59849 0.249572 1.49995C0.249572 1.4014 0.268982 1.30382 0.306694 1.21278C0.344406 1.12173 0.399681 1.03901 0.469364 0.969322C0.539046 0.899641 0.621772 0.844366 0.712817 0.806654C0.803861 0.768942 0.901443 0.749531 0.999989 0.749531C1.09854 0.749531 1.19612 0.768942 1.28716 0.806654C1.37821 0.844366 1.46093 0.899641 1.53061 0.969322Z" fill="#EB1C24"/>
</svg>
