<svg width="10" height="18" viewBox="0 0 10 18" fill="none" xmlns="http://www.w3.org/2000/svg">
<path d="M8.46938 17.0307L0.969386 9.53068C0.899654 9.46102 0.844334 9.3783 0.806591 9.28726C0.768848 9.19621 0.749422 9.09861 0.749422 9.00005C0.749422 8.90149 0.768848 8.80389 0.806591 8.71285C0.844334 8.6218 0.899654 8.53908 0.969386 8.46942L8.46939 0.969426C8.61012 0.828695 8.80099 0.749634 9.00001 0.749634C9.19903 0.749634 9.38991 0.828695 9.53064 0.969426C9.67137 1.11016 9.75043 1.30103 9.75043 1.50005C9.75043 1.69907 9.67137 1.88995 9.53064 2.03068L2.56032 9.00005L9.53063 15.9694C9.60032 16.0391 9.65559 16.1218 9.6933 16.2129C9.73102 16.3039 9.75043 16.4015 9.75043 16.5001C9.75043 16.5986 9.73102 16.6962 9.6933 16.7872C9.65559 16.8783 9.60032 16.961 9.53063 17.0307C9.46095 17.1004 9.37823 17.1556 9.28718 17.1933C9.19614 17.2311 9.09856 17.2505 9.00001 17.2505C8.90146 17.2505 8.80388 17.2311 8.71284 17.1933C8.62179 17.1556 8.53907 17.1004 8.46938 17.0307Z" fill="#888888"/>
</svg>
